<svg width="255" height="237" viewBox="0 0 255 237" fill="none" xmlns="http://www.w3.org/2000/svg">
<path id="Vector 3" d="M0.649266 72.1308L16.3422 120.959C14.4961 132.134 8.43331 153.398 6.65079 164.23C4.71407 175.998 8.24588 175.836 9.32165 176.141C10.3974 176.445 19.5443 175.671 22.7425 175.524C25.568 175.394 27.9915 174.221 28.6654 173.482L47.1901 137.592L100.232 136.571C91.1813 165.537 72.7751 224.544 71.5571 228.847C70.3391 233.15 73.3959 235.487 75.0765 236.118C76.5001 236.289 80.9815 236.767 86.0414 235.968C93.1567 234.845 93.6449 234.557 94.4203 233.46L155.633 132.963L225.53 129.044C277.346 116.753 246.945 94.4365 222.896 94.8337L154.347 97.2757C131.84 67.0464 86.3772 6.04211 84.578 3.85965C82.7789 1.67719 81.141 0.950223 80.547 0.859543C79.1343 0.924457 74.9635 1.04532 69.5822 1.00945C64.2008 0.973582 61.5942 4.32588 60.9636 6.00652L98.2074 100.209L45.2303 102.644L25.4043 71.7011C23.058 66.854 21.7577 66.7957 20.939 66.9513L3.9863 67.7303C3.9863 67.7303 0.504488 71.5476 0.649266 72.1308Z" fill="white" stroke="white"/>
</svg>
